PathFileType	4	(X/Y/Z)	13_2_36_p1_0-267.trc
DataRate	CameraRate	NumFrames	NumMarkers	Units	OrigDataRate	OrigDataStartFrame	OrigNumFrames
59.0	59.0	6	27	m	59.0	33	268
Frame#	Time	RHip			RKnee			RAnkle			RBigToe			RSmallToe			RHeel			LHip			LKnee			LAnkle			LBigToe			LSmallToe			LHeel			Neck			Head			Nose			RShoulder			RElbow			RWrist			RThumb			RIndex			RPinky			LShoulder			LElbow			LWrist			LThumb			LIndex			LPinky			
		X1	Y1	Z1	X2	Y2	Z2	X3	Y3	Z3	X4	Y4	Z4	X5	Y5	Z5	X6	Y6	Z6	X7	Y7	Z7	X8	Y8	Z8	X9	Y9	Z9	X10	Y10	Z10	X11	Y11	Z11	X12	Y12	Z12	X13	Y13	Z13	X14	Y14	Z14	X15	Y15	Z15	X16	Y16	Z16	X17	Y17	Z17	X18	Y18	Z18	X19	Y19	Z19	X20	Y20	Z20	X21	Y21	Z21	X22	Y22	Z22	X23	Y23	Z23	X24	Y24	Z24	X25	Y25	Z25	X26	Y26	Z26	X27	Y27	Z27	
33	0.559322033898305	0.2677695212441523	0.881790882381219	0.5916115213274672	0.28679273864799615	1.1015654761611506	1.0044332354676218	0.2620611541425155	1.309989784360827	1.3785305778033352	0.257510405903165	1.0990642580101202	1.4580981972144955	0.3247746172882853	1.158806925843874	1.4564767502849463	0.2481837151548359	1.401984901580221	1.414049310550271	0.053387622993443774	0.8811498771353485	0.5976513306272109	0.06080936498394682	1.0810985938471327	0.9962255841527923	0.06762944869465536	1.2414120585009623	1.3758158701406826	0.08615914600831896	1.1216617086112284	1.4704556173828527	0.03376063006400138	1.143848429823426	1.4569699662606583	0.08630065122924468	1.3424676682392216	1.4115556040246038	0.15425568723370442	0.6848519539855619	0.12489470835146171	0.18433592465342657	0.5144469948520822	-0.08787328748751932	0.16585799912130167	0.5169465939229476	0.05792494640483603	0.3057540023828145	0.6774960005079146	0.1938379588693063	0.3237163578357876	0.7543768814741245	0.4362645482996556	0.20796904536649044	0.7564800047832292	0.6719068634208333	0.09520959033736501	0.7445816299406692	0.7525309938885575	0.10515463180203023	0.7573675524227409	0.7711500271545021	0.15855169885847634	0.7823758132279095	0.7849218011501763	0.01900533228887206	0.7190150061972455	0.18503864473836348	-0.04520058881558186	0.7976069584066567	0.45051579449520845	0.07113181163768358	0.7393310956716624	0.6709834064727107	0.1105539513413611	0.7405088398900899	0.7342988892540192	0.12644187827745818	0.7237806429794187	0.7630309347423775	0.12872993929214255	0.7861490903201649	0.769275183774863
34	0.576271186440678	0.26794549009146745	0.8811848928753139	0.5915423372753732	0.2869832226157668	1.1012565237669991	1.003908629114574	0.2629887082271347	1.3080878650824437	1.3740032334418288	0.2575899464767347	1.0984041457595486	1.4577985460288303	0.32499134361505844	1.1579913835824325	1.4561685051287216	0.2494126068619691	1.399639480484464	1.4080793766292563	0.053517510347557966	0.8808042042441633	0.5973044195550191	0.06094375628440937	1.075234551041745	0.9874882659136219	0.06758405903038431	1.2413734145601456	1.3757591475911224	0.09137584673054684	1.1039880275909855	1.4667529343094348	0.032610521504803654	1.1453636874395745	1.4610876884106696	0.08628827413428478	1.3416456829181336	1.4110443460346982	0.15423255948025016	0.6848859852767667	0.1248998148746761	0.18424963331136945	0.5144497539370668	-0.08790647477073821	0.16581902373470508	0.516845679013988	0.05797472781340822	0.3057674216745792	0.677509424188638	0.1938435383836768	0.3233946418505253	0.7555272733184784	0.43984876160050174	0.21144653272416847	0.7691646390156731	0.6711486853182098	0.10675337578251809	0.7583316400449787	0.751844499723637	0.12088705250739727	0.7694221936771884	0.7737005310772468	0.16303582112175544	0.752617182145778	0.7854229522230137	0.019013322411710835	0.7190170604385697	0.1850485278724862	-0.04527541880961	0.7983819196176011	0.450398991573552	0.07062370215243222	0.7406949817920181	0.6747839388271457	0.11008935903503066	0.7407009972826418	0.7343684989951951	0.12998777027887132	0.7228362650116583	0.7658713856070144	0.13191949741644962	0.7807178126196894	0.7684275782203108
35	0.5932203389830508	0.2637458017889837	0.8799871729116441	0.591948553019161	0.2876704165794321	1.0995029485596501	1.0002380066666114	0.26294214691119144	1.307880611521879	1.3739803735980858	0.25751169793031836	1.0982781133672022	1.4578399194753011	0.3249308880087841	1.157554478177099	1.4560967032019005	0.2492834314242581	1.39939128375467	1.4080548908427752	0.0538312537465389	0.8835405190141039	0.6016684188287102	0.061611872561402506	1.0790143326672257	0.9921299979828729	0.06754564493906448	1.241356242556085	1.3757570205755216	0.09136556714314131	1.1039403415860845	1.4667333451623792	0.03173139135583378	1.1410796238960073	1.455827559840942	0.08598430124411564	1.3415026310748022	1.411365766631404	0.15424108715899482	0.6850032091385274	0.1248428255796641	0.1842459091423477	0.5144458646237567	-0.08786618688015757	0.165735474496298	0.5166410367029075	0.05802943331195864	0.3057890544113401	0.6775612041463537	0.19386007576808847	0.32372388384208317	0.7543069487889329	0.43611715131302603	0.2203738272514351	0.7562573833768046	0.6715365482918079	0.1219582922006098	0.7322180265574342	0.7624933705660817	0.13497120421447495	0.7459219704592756	0.7778277860633835	0.16800061338674985	0.7419974553270975	0.7903878257244557	0.018979238977900346	0.719070889027133	0.18505881548625586	-0.045329412484941746	0.7982217057426406	0.4506337284498892	0.06832181490841506	0.7276782664904946	0.6759454510736387	0.1296373141146359	0.7747283816742049	0.7526564954222865	0.1327385201852398	0.7702724213555261	0.7689273986306218	0.125615189492451	0.8189234759768896	0.7766043184949366
36	0.6101694915254238	0.25950895119646633	0.8954040323634298	0.5909764270661604	0.2878144186813829	1.099650784328473	1.0040142255813576	0.26287492877286683	1.3076040365059667	1.373961448481487	0.2577705952223746	1.098752699713304	1.4576337901860212	0.32938074171546206	1.1400218660286687	1.4523854629176027	0.24696105517719652	1.3976051444806208	1.4089397705429618	0.052804697832272596	0.8823064181807824	0.6013705225144834	0.060630516299667925	1.0754272480439158	0.9871927205985557	0.06813947979089108	1.241335379036171	1.379494377947492	0.0859300595361393	1.1214569155645433	1.4655286254121065	0.034109003527588624	1.142756993712247	1.4563001073294954	0.0867784261178808	1.3392368853915038	1.410321142477832	0.15437118887077142	0.6857221199782274	0.12824184496638014	0.18441080713933217	0.5155661223862562	-0.08483454746355089	0.1627404192581111	0.505688649157284	0.0613154834101059	0.30581365337657035	0.6774577733897345	0.19373402169603884	0.32751256920809957	0.754612731592034	0.43194186913894494	0.23312717191042537	0.7582994937140483	0.6742440698835123	0.1467674375737517	0.7349331967538323	0.7625863337400784	0.15027787449019003	0.7586964178148536	0.7767047570665356	0.16490565959995365	0.7678535482157685	0.7877533724038597	0.018885880055813337	0.7190380115166497	0.18519312801122856	-0.045588161338905836	0.8025572822631137	0.45783114312133494	0.07151620457126659	0.7435782577286735	0.6790134397706717	0.1348539949725367	0.7584814458115374	0.7494685595690133	0.1367841529040085	0.7672112389477516	0.768404597564245	0.13004644974266366	0.8008163158574182	0.7883103568106765
37	0.6271186440677966	0.26367401959518677	0.8803741313389051	0.5919389458565743	0.2870392183302879	1.1017063015532662	1.0120466602790776	0.26286711203445745	1.3073319230795182	1.3739183061519449	0.2586321276886272	1.0975385573826528	1.4537169667377772	0.32176005713209266	1.1451612418674069	1.4539352520318625	0.24272268065730757	1.381323966074119	1.4069869031931899	0.05275393654923999	0.8822829497157189	0.6012895597787276	0.060520946652911155	1.081161067599299	0.9961354773664886	0.06807023047942903	1.241283584788053	1.3794845744478876	0.08701796100092815	1.125841082972843	1.4752765028200374	0.03388627483253309	1.1443740813128844	1.4571489450299626	0.08326098073647253	1.3242694606605576	1.4088453802238448	0.15440230283723672	0.6857294077846057	0.1282303780420102	0.18449680675373428	0.5155749274743743	-0.08474857588412588	0.1627173944722211	0.5056439222363467	0.06135500455653523	0.3058131712365741	0.6774669246658972	0.1937468038358858	0.3279231102380554	0.7534813043910233	0.4281172880743928	0.23612656038473318	0.7718781859117441	0.6770570059848795	0.1559633201371471	0.7226512461951293	0.7664563656995466	0.16393850373005497	0.7365163263764796	0.7846444154044507	0.16662321334902125	0.741069778955343	0.7881754071717413	0.01888718439723344	0.7189497378962966	0.18522608068628824	-0.050510641704368905	0.8147110634101004	0.4528655210509203	0.059679970686492174	0.7435275420060274	0.6831703464685526	0.1389949914592137	0.7630395341835019	0.756808510070286	0.1433190426220984	0.7820489921132363	0.7645365620515282	0.11629933240015486	0.8124344103288562	0.8059489940895115
38	0.6440677966101694	0.2637753981590545	0.8800019642693055	0.5919866066777371	0.2870132504805707	1.1020306709434373	1.0120479820325263	0.2619724279544829	1.3091915321254712	1.3784458715389407	0.254284218978756	1.0840780116199644	1.4554227063600023	0.32148765871572954	1.1437677774904613	1.4537913463251104	0.24892776971073668	1.3645799911647063	1.4083860827145496	0.052785748234487034	0.88213192041657	0.6009529750351046	0.06019069283414016	1.080507165974228	0.9923126572815311	0.06705710670071655	1.2372779212400868	1.3742736156220101	0.08604672406718511	1.1220493636393638	1.4705559220136801	0.03293020112944755	1.1404511046201806	1.4521338209983166	0.08600473498639691	1.3403165080029187	1.4071625358369582	0.15059863975479895	0.6846980045436756	0.12862195374856963	0.1815403991265938	0.5043671291765567	-0.08080027057063817	0.15886629019177978	0.5037222226986378	0.06205341289809004	0.305781059809298	0.6775577060200826	0.1937924684671736	0.3276036719987951	0.754944862171891	0.4318690612388728	0.24093474467744222	0.7576387015339888	0.6816627980420177	0.16380741761069512	0.7309688162435193	0.7739804172629676	0.1647255764170375	0.7368421926286068	0.7848933888918805	0.17144357046381964	0.7420243184618716	0.7875177979787082	0.018869605154976283	0.7189952080766563	0.18522096066414057	-0.050426440224777956	0.8151212022619783	0.45261659700155465	0.04505518877337482	0.7847900848809872	0.6783635498946579	0.12332137630666876	0.8251192399141507	0.76006008738051	0.12432252348319897	0.8343641508259608	0.7770623978235192	0.10260220114921018	0.8240448804682565	0.8106225316270287
